<?xml version="1.0" encoding="utf-8"?>
<!-- Generator: Adobe Illustrator 27.9.0, SVG Export Plug-In . SVG Version: 6.00 Build 0)  -->
<svg version="1.1" id="Layer_1" xmlns="http://www.w3.org/2000/svg" xmlns:xlink="http://www.w3.org/1999/xlink" x="0px" y="0px"
	 viewBox="0 0 28.08 29.41" style="enable-background:new 0 0 28.08 29.41;" xml:space="preserve">
<style type="text/css">
	.st0{fill:#B6CDF2;}
</style>
<g>
	<path class="st0" d="M14.04,13.26c-3.66,0-6.63-2.97-6.63-6.63S10.38,0,14.04,0s6.63,2.97,6.63,6.63S17.69,13.26,14.04,13.26z
		 M14.04,3c-2,0-3.63,1.63-3.63,3.63s1.63,3.63,3.63,3.63c2,0,3.63-1.63,3.63-3.63S16.04,3,14.04,3z"/>
	<path class="st0" d="M25,29.41l-2.03-8.79c-0.37-1.6-1.77-2.71-3.41-2.71H8.52c-1.64,0-3.04,1.12-3.41,2.71l-2.03,8.79l-3.08,0
		l2.18-9.46c0.68-2.97,3.29-5.04,6.33-5.04h11.04c3.04,0,5.65,2.07,6.33,5.04l2.18,9.46L25,29.41z"/>
</g>
</svg>
