<?xml version="1.0" encoding="utf-8"?>
<!-- Generator: Adobe Illustrator 28.0.0, SVG Export Plug-In . SVG Version: 6.00 Build 0)  -->
<svg version="1.1" id="Layer_1" xmlns="http://www.w3.org/2000/svg" xmlns:xlink="http://www.w3.org/1999/xlink" x="0px" y="0px"
	 viewBox="0 0 162.08 162.08" style="enable-background:new 0 0 162.08 162.08;" xml:space="preserve">
<style type="text/css">
	.st0{fill:#B6CDF2;}
</style>
<path class="st0" d="M138.92,17.37c3.19,0,5.79,2.6,5.79,5.79v23.15c0,7.45-6.06,13.51-13.51,13.51h-28.94V30.87
	c0-7.45,6.06-13.51,13.51-13.51H138.92 M138.92,0h-23.15C98.72,0,84.9,13.82,84.9,30.87v46.31h46.31
	c17.05,0,30.87-13.82,30.87-30.87V23.15C162.08,10.37,151.71,0,138.92,0L138.92,0z M46.31,17.37c7.45,0,13.51,6.06,13.51,13.51
	v28.94H30.87c-7.45,0-13.51-6.06-13.51-13.51V23.15c0-3.19,2.6-5.79,5.79-5.79H46.31 M46.31,0H23.15C10.37,0,0,10.37,0,23.15v23.15
	c0,17.05,13.82,30.87,30.87,30.87h46.31V30.87C77.18,13.82,63.36,0,46.31,0L46.31,0z M59.81,102.26v28.94
	c0,7.45-6.06,13.51-13.51,13.51H23.15c-3.19,0-5.79-2.6-5.79-5.79v-23.15c0-7.45,6.06-13.51,13.51-13.51H59.81 M77.18,84.9H30.87
	C13.82,84.9,0,98.72,0,115.77v23.15c0,12.79,10.37,23.15,23.15,23.15h23.15c17.05,0,30.87-13.82,30.87-30.87V84.9L77.18,84.9z
	 M131.21,102.26c7.45,0,13.51,6.06,13.51,13.51v23.15c0,3.19-2.6,5.79-5.79,5.79h-23.15c-7.45,0-13.51-6.06-13.51-13.51v-28.94
	H131.21 M131.21,84.9H84.9v46.31c0,17.05,13.82,30.87,30.87,30.87h23.15c12.79,0,23.15-10.37,23.15-23.15v-23.15
	C162.08,98.72,148.26,84.9,131.21,84.9L131.21,84.9z"/>
</svg>
