<?xml version="1.0" encoding="utf-8"?>
<!-- Generator: Adobe Illustrator 28.0.0, SVG Export Plug-In . SVG Version: 6.00 Build 0)  -->
<svg version="1.1" id="Layer_1" xmlns="http://www.w3.org/2000/svg" xmlns:xlink="http://www.w3.org/1999/xlink" x="0px" y="0px"
	 viewBox="0 0 162.08 162.08" style="enable-background:new 0 0 162.08 162.08;" xml:space="preserve">
<style type="text/css">
	.st0{fill:#B6CDF2;}
</style>
<path class="st0" d="M96.5,81.04l62.37-62.38c4.27-4.27,4.27-11.19,0-15.46c-4.27-4.27-11.19-4.27-15.46,0L81.04,65.58L18.66,3.2
	C14.39-1.07,7.48-1.07,3.2,3.2s-4.27,11.19,0,15.46l62.37,62.38L3.2,143.42c-4.27,4.27-4.27,11.19,0,15.46
	c2.14,2.14,4.93,3.2,7.73,3.2s5.59-1.07,7.73-3.2L81.04,96.5l62.37,62.38c2.14,2.14,4.93,3.2,7.73,3.2s5.59-1.07,7.73-3.2
	c4.27-4.27,4.27-11.19,0-15.46L96.5,81.04z"/>
</svg>
