<?xml version="1.0" encoding="utf-8"?>
<!-- Generator: Adobe Illustrator 27.9.0, SVG Export Plug-In . SVG Version: 6.00 Build 0)  -->
<svg version="1.1" id="Layer_1" xmlns="http://www.w3.org/2000/svg" xmlns:xlink="http://www.w3.org/1999/xlink" x="0px" y="0px"
	 viewBox="0 0 208.1 208.1" style="enable-background:new 0 0 208.1 208.1;" xml:space="preserve">
<style type="text/css">
	.st0{fill:#B6CDF2;}
</style>
<path class="st0" d="M104,0C75.8,0,72.2,0.1,61.1,0.6C50.1,1.1,42.5,2.9,35.9,5.5c-6.8,2.7-12.6,6.2-18.4,12
	c-5.8,5.8-9.3,11.6-12,18.4c-2.6,6.6-4.3,14.2-4.8,25.2C0.1,72.2,0,75.8,0,104s0.1,31.8,0.6,42.9c0.5,11.1,2.3,18.6,4.8,25.2
	c2.7,6.8,6.2,12.6,12,18.4c5.8,5.8,11.6,9.3,18.4,12c6.6,2.6,14.2,4.3,25.3,4.8c11.1,0.5,14.6,0.6,42.9,0.6
	c28.3,0,31.8-0.1,42.9-0.6c11.1-0.5,18.6-2.3,25.3-4.8c6.8-2.7,12.6-6.2,18.4-12c5.8-5.8,9.3-11.6,12-18.4
	c2.6-6.6,4.3-14.2,4.8-25.2c0.5-11.1,0.6-14.6,0.6-42.9s-0.1-31.8-0.6-42.9c-0.5-11.1-2.3-18.6-4.8-25.2c-2.7-6.8-6.2-12.6-12-18.4
	c-5.8-5.8-11.6-9.3-18.4-12c-6.6-2.6-14.2-4.3-25.3-4.8C135.8,0.1,132.3,0,104,0L104,0z M94.7,18.7c2.8,0,5.9,0,9.3,0
	c27.8,0,31.1,0.1,42,0.6c10.1,0.5,15.6,2.2,19.3,3.6c4.9,1.9,8.3,4.1,12,7.8c3.6,3.6,5.9,7.1,7.8,12c1.4,3.7,3.1,9.2,3.6,19.3
	c0.5,11,0.6,14.3,0.6,42s-0.1,31.1-0.6,42c-0.5,10.1-2.2,15.6-3.6,19.3c-1.9,4.9-4.1,8.3-7.8,12c-3.6,3.6-7.1,5.9-12,7.8
	c-3.7,1.4-9.2,3.1-19.3,3.6c-11,0.5-14.3,0.6-42,0.6c-27.8,0-31.1-0.1-42-0.6c-10.1-0.5-15.6-2.2-19.3-3.6c-4.9-1.9-8.3-4.1-12-7.8
	c-3.6-3.6-5.9-7.1-7.8-12c-1.4-3.7-3.1-9.2-3.6-19.3c-0.5-11-0.6-14.3-0.6-42s0.1-31.1,0.6-42c0.5-10.1,2.2-15.6,3.6-19.3
	c1.9-4.9,4.1-8.3,7.8-12c3.6-3.6,7.1-5.9,12-7.8c3.7-1.4,9.2-3.1,19.3-3.6C71.6,18.9,75.3,18.7,94.7,18.7L94.7,18.7z M159.6,36
	c-6.9,0-12.5,5.6-12.5,12.5c0,6.9,5.6,12.5,12.5,12.5S172,55.4,172,48.5S166.5,36,159.6,36L159.6,36z M104,50.6
	c-29.5,0-53.4,23.9-53.4,53.4s23.9,53.4,53.4,53.4c29.5,0,53.4-23.9,53.4-53.4S133.5,50.6,104,50.6L104,50.6z M104,69.4
	c19.1,0,34.7,15.5,34.7,34.7c0,19.1-15.5,34.7-34.7,34.7c-19.2,0-34.7-15.5-34.7-34.7C69.4,84.9,84.9,69.4,104,69.4z"/>
</svg>
