<?xml version="1.0" encoding="utf-8"?>
<!-- Generator: Adobe Illustrator 28.0.0, SVG Export Plug-In . SVG Version: 6.00 Build 0)  -->
<svg version="1.1" id="Layer_1" xmlns="http://www.w3.org/2000/svg" xmlns:xlink="http://www.w3.org/1999/xlink" x="0px" y="0px"
	 viewBox="0 0 150 150" style="enable-background:new 0 0 150 150;" xml:space="preserve">
<style type="text/css">
	.st0{fill:#021125;}
</style>
<g>
	<path class="st0" d="M75,125c-27.61,0-50-22.39-50-50s22.39-50,50-50V125z"/>
	<g>
		<path class="st0" d="M75,12.5c34.46,0,62.5,28.04,62.5,62.5s-28.04,62.5-62.5,62.5S12.5,109.46,12.5,75S40.54,12.5,75,12.5 M75,0
			C33.64,0,0,33.64,0,75c0,41.36,33.64,75,75,75c41.36,0,75-33.64,75-75C150,33.64,116.36,0,75,0L75,0z"/>
	</g>
</g>
</svg>
