<?xml version="1.0" encoding="utf-8"?>
<!-- Generator: Adobe Illustrator 28.0.0, SVG Export Plug-In . SVG Version: 6.00 Build 0)  -->
<svg version="1.1" id="Layer_1" xmlns="http://www.w3.org/2000/svg" xmlns:xlink="http://www.w3.org/1999/xlink" x="0px" y="0px"
	 viewBox="0 0 150 150" style="enable-background:new 0 0 150 150;" xml:space="preserve">
<style type="text/css">
	.st0{fill:#B6CDF2;}
</style>
<g>
	<path class="st0" d="M75,25c27.61,0,50,22.39,50,50s-22.39,50-50,50V25z"/>
	<g>
		<path class="st0" d="M75,137.5c-34.46,0-62.5-28.04-62.5-62.5S40.54,12.5,75,12.5s62.5,28.04,62.5,62.5S109.46,137.5,75,137.5
			 M75,150c41.36,0,75-33.64,75-75c0-41.36-33.64-75-75-75C33.64,0,0,33.64,0,75C0,116.36,33.64,150,75,150L75,150z"/>
	</g>
</g>
</svg>
