<?xml version="1.0" encoding="utf-8"?>
<!-- Generator: Adobe Illustrator 27.9.0, SVG Export Plug-In . SVG Version: 6.00 Build 0)  -->
<svg version="1.1" id="Layer_1" xmlns="http://www.w3.org/2000/svg" xmlns:xlink="http://www.w3.org/1999/xlink" x="0px" y="0px"
	 viewBox="0 0 28.31 29.36" style="enable-background:new 0 0 28.31 29.36;" xml:space="preserve">
<style type="text/css">
	.st0{fill:#B6CDF2;}
</style>
<path class="st0" d="M28.27,25.36l-2.19-15.15c-0.25-1.71-1.74-3-3.46-3H21.3V4.5c0-2.48-2.02-4.5-4.5-4.5h-5.23
	c-2.48,0-4.5,2.02-4.5,4.5v2.71H5.69c-1.73,0-3.22,1.29-3.46,3L0.04,25.36c-0.15,1.01,0.15,2.02,0.82,2.79
	c0.67,0.77,1.63,1.21,2.65,1.21h21.31c1.02,0,1.98-0.44,2.65-1.21C28.12,27.38,28.42,26.37,28.27,25.36z M10.07,4.5
	c0-0.83,0.67-1.5,1.5-1.5h5.23c0.83,0,1.5,0.67,1.5,1.5v2.71h-8.23V4.5z M25.19,26.19c-0.06,0.06-0.18,0.17-0.38,0.17H3.5
	c-0.2,0-0.32-0.11-0.38-0.17c-0.06-0.06-0.15-0.2-0.12-0.4L5.2,10.64c0.04-0.24,0.25-0.43,0.5-0.43h1.38H21.3h1.32
	c0.25,0,0.46,0.18,0.5,0.43l2.19,15.15C25.33,25.99,25.24,26.12,25.19,26.19z"/>
</svg>
