<?xml version="1.0" encoding="utf-8"?>
<!-- Generator: Adobe Illustrator 28.0.0, SVG Export Plug-In . SVG Version: 6.00 Build 0)  -->
<svg version="1.1" id="Layer_1" xmlns="http://www.w3.org/2000/svg" xmlns:xlink="http://www.w3.org/1999/xlink" x="0px" y="0px"
	 viewBox="0 0 250 250" style="enable-background:new 0 0 250 250;" xml:space="preserve">
<style type="text/css">
	.st0{fill:#FFFFFF;}
</style>
<g>
	<g>
		<path class="st0" d="M8.99,112.76c-11.99,3.78-11.99,20.7,0,24.48c28.78,9.08,58.72,19.92,71.29,32.49
			c12.57,12.57,23.41,42.51,32.49,71.29c3.78,11.99,20.7,11.99,24.48,0c9.07-28.77,19.91-58.72,32.48-71.28
			c12.57-12.57,42.51-23.41,71.29-32.49c11.99-3.78,11.99-20.7,0-24.48c-28.78-9.07-58.72-19.91-71.29-32.48
			c-12.57-12.57-23.4-42.51-32.47-71.28C133.47-3,116.55-3,112.77,8.99c-9.08,28.77-19.92,58.72-32.49,71.29
			C67.71,92.84,37.77,103.68,8.99,112.76z"/>
	</g>
</g>
</svg>
