<?xml version="1.0" encoding="utf-8"?>
<!-- Generator: Adobe Illustrator 27.9.0, SVG Export Plug-In . SVG Version: 6.00 Build 0)  -->
<svg version="1.1" id="Layer_1" xmlns="http://www.w3.org/2000/svg" xmlns:xlink="http://www.w3.org/1999/xlink" x="0px" y="0px"
	 viewBox="0 0 163.3 114.3" style="enable-background:new 0 0 163.3 114.3;" xml:space="preserve">
<style type="text/css">
	.st0{fill:#B6CDF2;}
</style>
<path class="st0" d="M159.9,17.8c-1.9-7-7.4-12.6-14.4-14.4C132.7,0,81.6,0,81.6,0S30.6,0,17.8,3.4c-7,1.9-12.6,7.4-14.4,14.4
	C0,30.6,0,57.2,0,57.2s0,26.6,3.4,39.3c1.9,7,7.4,12.6,14.4,14.4c12.7,3.4,63.8,3.4,63.8,3.4s51.1,0,63.8-3.4
	c7-1.9,12.6-7.4,14.4-14.4c3.4-12.7,3.4-39.3,3.4-39.3S163.3,30.6,159.9,17.8z M65.3,81.6v-49l42.4,24.5L65.3,81.6z"/>
</svg>
