<?xml version="1.0" encoding="utf-8"?>
<!-- Generator: Adobe Illustrator 27.9.0, SVG Export Plug-In . SVG Version: 6.00 Build 0)  -->
<svg version="1.1" id="Layer_1" xmlns="http://www.w3.org/2000/svg" xmlns:xlink="http://www.w3.org/1999/xlink" x="0px" y="0px"
	 viewBox="0 0 121.9 139.9" style="enable-background:new 0 0 121.9 139.9;" xml:space="preserve">
<style type="text/css">
	.st0{fill:#001025;}
</style>
<path class="st0" d="M43.3,51.4C19.3,51.9,0,71.5,0,95.6c0,12,4.8,23,12.6,30.9l0,0c0,0,0,0,0,0c0,0,0,0,0,0h0
	c8,8.2,19.2,13.3,31.7,13.3c24.5,0,44.3-19.8,44.3-44.2V46.8c9.4,6.7,20.9,10.7,33.4,10.7V33.5c-2.4,0-4.7-0.2-7-0.7v0
	c-6.9-1.5-13.1-5.1-17.7-10.2c-4.8-5.2-8-12-8.6-19.5V0h-6.6H64.5v95.6c0,11.1-9.1,20.2-20.3,20.2c-6.6,0-12.4-3.1-16.1-8h0
	c-2.7-3.5-4.1-7.8-4.1-12.3c0-11.2,9.1-20.2,20.3-20.2c2.1,0,4.2,0.3,6.1,0.9V51.8C48,51.5,45.7,51.3,43.3,51.4L43.3,51.4z"/>
</svg>
