<?xml version="1.0" encoding="utf-8"?>
<!-- Generator: Adobe Illustrator 27.9.0, SVG Export Plug-In . SVG Version: 6.00 Build 0)  -->
<svg version="1.1" id="Layer_1" xmlns="http://www.w3.org/2000/svg" xmlns:xlink="http://www.w3.org/1999/xlink" x="0px" y="0px"
	 viewBox="0 0 303.45 52.4" style="enable-background:new 0 0 303.45 52.4;" xml:space="preserve">
<style type="text/css">
	.st0{fill:#021125;}
</style>
<g>
	<path class="st0" d="M44.92,5.61c1.03,0,1.87,0.84,1.87,1.87v7.49c0,2.41-1.96,4.37-4.37,4.37h-9.36V9.98
		c0-2.41,1.96-4.37,4.37-4.37H44.92 M44.92,0h-7.49c-5.51,0-9.98,4.47-9.98,9.98v14.97h14.97c5.51,0,9.98-4.47,9.98-9.98V7.49
		C52.4,3.35,49.05,0,44.92,0L44.92,0z"/>
	<path class="st0" d="M14.97,5.61c2.41,0,4.37,1.96,4.37,4.37v9.36H9.98c-2.41,0-4.37-1.96-4.37-4.37V7.49
		c0-1.03,0.84-1.87,1.87-1.87H14.97 M14.97,0H7.49C3.35,0,0,3.35,0,7.49v7.49c0,5.51,4.47,9.98,9.98,9.98h14.97V9.98
		C24.95,4.47,20.48,0,14.97,0L14.97,0z"/>
	<path class="st0" d="M19.34,33.06v9.36c0,2.41-1.96,4.37-4.37,4.37H7.49c-1.03,0-1.87-0.84-1.87-1.87v-7.49
		c0-2.41,1.96-4.37,4.37-4.37H19.34 M24.95,27.45H9.98C4.47,27.45,0,31.92,0,37.43v7.49c0,4.13,3.35,7.49,7.49,7.49h7.49
		c5.51,0,9.98-4.47,9.98-9.98V27.45L24.95,27.45z"/>
	<path class="st0" d="M42.42,33.06c2.41,0,4.37,1.96,4.37,4.37v7.49c0,1.03-0.84,1.87-1.87,1.87h-7.49c-2.41,0-4.37-1.96-4.37-4.37
		v-9.36H42.42 M42.42,27.45H27.45v14.97c0,5.51,4.47,9.98,9.98,9.98h7.49c4.13,0,7.49-3.35,7.49-7.49v-7.49
		C52.4,31.92,47.93,27.45,42.42,27.45L42.42,27.45z"/>
	<g>
		<path class="st0" d="M60.11,10.18h14.01c7.49,0,11.93,3.09,11.93,8.31c0,3.53-1.69,6.04-4.54,6.81v0.05
			c3.43,0.77,5.75,3.33,5.75,7.34c0,5.84-4.1,9.27-12.12,9.27H60.11V10.18z M74.64,23.36c2.85,0,4.44-1.26,4.44-3.62
			s-1.59-3.82-5.02-3.82h-6.04v7.44H74.64z M75.13,36.21c2.9,0,4.59-1.64,4.59-4.35c0-2.22-1.74-3.72-4.78-3.72h-6.91v8.07H75.13z"
			/>
		<path class="st0" d="M114.4,31.43H97.44c0.34,3.91,2.32,5.6,5.6,5.6c2.85,0,4.68-1.01,4.88-3.33h6.47
			c-0.14,5.46-4.69,8.65-11.49,8.65c-7.92,0-12.85-4.49-12.85-12.07c0-7.87,4.93-12.56,12.99-12.56c6.66,0,11.35,3.82,11.35,11.64
			V31.43z M107.92,27.13c0-2.71-1.84-4.11-4.88-4.11c-3.09,0-4.83,1.35-5.41,4.49h10.29V27.13z"/>
		<path class="st0" d="M117.2,33.94h6.57c0,2.22,1.11,3.67,5.31,3.67c3.82,0,5.17-1.11,5.17-2.85c0-0.87-0.43-1.55-1.69-1.84
			s-3.19-0.48-5.55-0.68c-3.43-0.29-6.09-0.82-7.53-1.84c-1.35-0.97-2.27-2.7-2.27-4.68c0-5.17,5.31-8.02,11.93-8.02
			c7.82,0,11.4,3,11.4,8.55h-6.47c-0.05-2.51-1.21-3.82-4.83-3.82c-3.28,0-4.73,1.11-4.73,2.75c0,1.01,0.39,1.79,1.74,2.12
			c1.21,0.29,3.33,0.48,5.89,0.73c2.95,0.29,5.02,0.58,6.81,1.59c1.55,0.87,2.66,2.66,2.66,4.73c0,5.02-4.3,7.97-12.46,7.97
			C120.73,42.34,117.2,38.77,117.2,33.94z"/>
		<path class="st0" d="M146.86,33.75V23.8h-3.53v-5.7h2.85c1.11,0,1.5-0.63,1.64-2.08l0.34-3.33h6.04v5.41h7.63v5.7h-7.63v9.56
			c0,2.46,1.16,3.24,4.06,3.24c1.01,0,2.51-0.14,3.33-0.34v5.56c-0.63,0.14-2.66,0.53-4.64,0.53
			C149.51,42.34,146.86,39.06,146.86,33.75z"/>
		<path class="st0" d="M187.82,31.43h-16.95c0.34,3.91,2.32,5.6,5.6,5.6c2.85,0,4.68-1.01,4.88-3.33h6.47
			c-0.14,5.46-4.69,8.65-11.49,8.65c-7.92,0-12.85-4.49-12.85-12.07c0-7.87,4.93-12.56,12.99-12.56c6.66,0,11.35,3.82,11.35,11.64
			V31.43z M181.34,27.13c0-2.71-1.84-4.11-4.88-4.11c-3.09,0-4.83,1.35-5.41,4.49h10.29V27.13z"/>
		<path class="st0" d="M191.06,18.1h7.34l-0.29,6.81h0.1c1.01-4.54,3.57-7.2,8.26-7.2c4.88,0,7.73,3.14,7.73,9.32
			c0,1.35-0.14,3.48-0.24,4.73h-6.67c0.1-1.16,0.14-2.37,0.14-3.09c0-3.48-1.4-4.88-3.72-4.88c-3.14,0-5.31,2.56-5.31,7.87v10.29
			h-7.34V18.1z"/>
		<path class="st0" d="M219.36,10.18h12.94c7.39,0,10.82,3.24,10.82,8.31c0,3.67-1.84,6.33-5.6,6.81v0.05
			c4.4,0.39,6.81,3.28,6.81,7.44c0,5.6-3.09,9.18-10.87,9.18h-14.1V10.18z M232.84,24.13c4.49,0,6.52-1.98,6.52-5.12
			c0-3.19-2.08-5.27-7.1-5.27h-8.84v10.38H232.84z M233.32,38.38c5.46,0,7.05-2.32,7.05-5.99c0-3.19-2.61-5.26-7.24-5.26h-9.71
			v11.25H233.32z"/>
		<path class="st0" d="M249.89,32.83V18.1h3.86v14.05c0,4.1,2.7,6.71,7.24,6.71c5.55,0,9.13-3.72,9.13-10V18.1h3.86v23.86h-3.86
			c0.1-1.59,0.19-4.59,0.19-7h-0.05c-1.01,4.49-4.39,7.39-10.34,7.39C253.7,42.34,249.89,38.62,249.89,32.83z"/>
		<path class="st0" d="M281.33,51.37v-3.24c0.58,0.19,1.74,0.48,2.95,0.48c2.61,0,3.77-1.26,5.99-6.66h-1.01L278.53,18.1h4.54
			l8.69,19.95h0.1l7.68-19.95h3.91l-9.47,24.29c-2.85,7.39-4.68,9.61-9.22,9.61C283.41,52,282.01,51.66,281.33,51.37z"/>
	</g>
</g>
</svg>
