<?xml version="1.0" encoding="utf-8"?>
<!-- Generator: Adobe Illustrator 27.9.0, SVG Export Plug-In . SVG Version: 6.00 Build 0)  -->
<svg version="1.1" id="Layer_1" xmlns="http://www.w3.org/2000/svg" xmlns:xlink="http://www.w3.org/1999/xlink" x="0px" y="0px"
	 viewBox="0 0 29.41 29.41" style="enable-background:new 0 0 29.41 29.41;" xml:space="preserve">
<style type="text/css">
	.st0{fill:#021125;}
</style>
<path class="st0" d="M28.97,26.85l-9.81-9.81c3.13-4.17,2.82-10.13-0.98-13.92c-4.15-4.15-10.91-4.15-15.06,0
	c-4.15,4.15-4.15,10.91,0,15.06c2.08,2.08,4.8,3.12,7.53,3.12c2.25,0,4.5-0.72,6.39-2.14l9.81,9.81c0.29,0.29,0.68,0.44,1.06,0.44
	s0.77-0.15,1.06-0.44C29.55,28.38,29.55,27.43,28.97,26.85z M5.24,16.06c-2.98-2.98-2.98-7.84,0-10.82C6.73,3.75,8.69,3,10.65,3
	c1.96,0,3.92,0.75,5.41,2.24c2.98,2.98,2.98,7.84,0,10.82C13.07,19.04,8.22,19.04,5.24,16.06z"/>
</svg>
